<svg xmlns="http://www.w3.org/2000/svg" viewBox="0 0 932.09 1182.16"><defs><style>.ic-upload-doc{fill:#fff;}</style></defs><path class="ic-upload-doc" d="M850,848V349.67L500.33,0H60A60,60,0,0,0,0,60v980a60,60,0,0,0,60,60H597.92A182,182,0,1,0,850,848ZM562,203.09,647.91,289H582a20,20,0,0,1-20-20ZM568.1,1000H120a20,20,0,0,1-20-20V120a20,20,0,0,1,20-20H458.91l3.09,3.09V329a60,60,0,0,0,60,60H747.91l2.09,2.09V818.16A182,182,0,0,0,568.1,1000Zm269,31.67H780.65v56.49a31.38,31.38,0,0,1-62.76,0v-56.49H661.4a31.38,31.38,0,1,1,0-62.76h56.49V912.43a31.38,31.38,0,0,1,62.76,0v56.48h56.48a31.38,31.38,0,0,1,0,62.76Z"/></svg>